<svg width="40" height="40" viewBox="0 0 40 40" fill="none" xmlns="http://www.w3.org/2000/svg">
<path d="M34.2985 40C34.1483 40.0009 33.9995 39.9721 33.8605 39.9153C33.7215 39.8585 33.595 39.7749 33.4884 39.6691L26.4947 32.664L22.6955 38.3685C22.5745 38.5538 22.4022 38.6999 22.1996 38.7891C21.9971 38.8782 21.773 38.9065 21.5546 38.8705C21.3407 38.8386 21.1403 38.7467 20.9766 38.6053C20.813 38.4639 20.693 38.2789 20.6305 38.0719L13.785 15.2538C13.7037 15.0494 13.6831 14.8259 13.7258 14.6101C13.7686 14.3944 13.8727 14.1956 14.0259 14.0376C14.179 13.8797 14.3745 13.7694 14.5888 13.72C14.8031 13.6706 15.0272 13.6842 15.234 13.7592L38.0521 20.6046C38.2591 20.6671 38.444 20.7872 38.5854 20.9508C38.7268 21.1144 38.8188 21.3149 38.8507 21.5288C38.8867 21.7471 38.8584 21.9713 38.7693 22.1738C38.6801 22.3764 38.534 22.5487 38.3487 22.6697L32.6442 26.4689L39.6493 33.4626C39.7563 33.5687 39.8411 33.6949 39.899 33.8339C39.957 33.9729 39.9868 34.122 39.9868 34.2727C39.9868 34.4233 39.957 34.5724 39.899 34.7114C39.8411 34.8505 39.7563 34.9766 39.6493 35.0827L35.0857 39.6463C34.8797 39.8627 34.5971 39.9897 34.2985 40ZM34.2985 37.2504L37.2534 34.2955L29.0845 26.138L35.0743 22.1449L16.6031 16.6001L22.1479 35.0713L26.141 29.0815L34.2985 37.2504Z" fill="#EDECE6"/>
<path d="M17.0102 6.76844C17.2818 6.76837 17.5423 6.66043 17.7344 6.46834C17.9265 6.27626 18.0344 6.01576 18.0345 5.74411V1.03609C18.036 0.90059 18.0107 0.766131 17.9599 0.640498C17.9091 0.514864 17.834 0.400554 17.7387 0.304188C17.6434 0.207822 17.53 0.131316 17.4049 0.0791013C17.2799 0.0268862 17.1457 0 17.0102 0C16.8747 0 16.7406 0.0268862 16.6155 0.0791013C16.4905 0.131316 16.377 0.207822 16.2818 0.304188C16.1865 0.400554 16.1113 0.514864 16.0605 0.640498C16.0098 0.766131 15.9844 0.90059 15.986 1.03609V5.74411C15.986 6.01575 16.0939 6.27625 16.286 6.46833C16.478 6.66042 16.7385 6.76837 17.0102 6.76844Z" fill="#EDECE6"/>
<path d="M7.74674 9.18618C7.93932 9.37585 8.19907 9.48171 8.46937 9.48068C8.73967 9.47964 8.99861 9.37179 9.18972 9.18064C9.38084 8.98949 9.48864 8.73053 9.48963 8.46023C9.49061 8.18993 9.38471 7.9302 9.19499 7.73766L5.86604 4.40904C5.77119 4.31277 5.65822 4.23623 5.53365 4.18382C5.40908 4.13141 5.27537 4.10418 5.14023 4.10368C5.00509 4.10319 4.87118 4.12945 4.74623 4.18094C4.62128 4.23244 4.50776 4.30815 4.41221 4.40372C4.31665 4.49929 4.24096 4.61283 4.18949 4.73779C4.13801 4.86275 4.11178 4.99666 4.1123 5.1318C4.11282 5.26695 4.14008 5.40065 4.19251 5.52521C4.24494 5.64977 4.3215 5.76272 4.41779 5.85756L7.74674 9.18618Z" fill="#EDECE6"/>
<path d="M6.1277 16.1112L1.42009 16.111C1.28495 16.11 1.15094 16.1357 1.02579 16.1867C0.900638 16.2377 0.786819 16.313 0.690891 16.4082C0.594963 16.5034 0.518823 16.6166 0.46686 16.7414C0.414897 16.8661 0.388138 16.9999 0.388125 17.1351C0.388113 17.2702 0.414847 17.404 0.466787 17.5288C0.518727 17.6536 0.594846 17.7668 0.690756 17.862C0.786667 17.9572 0.900473 18.0325 1.02561 18.0835C1.15076 18.1346 1.28476 18.1603 1.4199 18.1593L6.12787 18.1594C6.26301 18.1604 6.39701 18.1347 6.52217 18.0837C6.64732 18.0327 6.76114 17.9574 6.85706 17.8622C6.95299 17.767 7.02913 17.6538 7.08109 17.529C7.13306 17.4042 7.15982 17.2704 7.15983 17.1353C7.15984 17.0002 7.13311 16.8663 7.08117 16.7416C7.02923 16.6168 6.95311 16.5036 6.8572 16.4083C6.76129 16.3131 6.64748 16.2378 6.52234 16.1868C6.3972 16.1358 6.26284 16.1102 6.1277 16.1112Z" fill="#EDECE6"/>
</svg>
