<svg width="40" height="41" viewBox="0 0 40 41" fill="none" xmlns="http://www.w3.org/2000/svg">
<g clip-path="url(#clip0_12_40)">
<path d="M38.675 20.075C37.2048 16.2721 34.6525 12.9833 31.3335 10.6151C28.0145 8.24694 24.0743 6.90322 20 6.75C15.9256 6.90322 11.9855 8.24694 8.66649 10.6151C5.34751 12.9833 2.79519 16.2721 1.32499 20.075C1.2257 20.3496 1.2257 20.6504 1.32499 20.925C2.79519 24.7279 5.34751 28.0167 8.66649 30.3849C11.9855 32.7531 15.9256 34.0968 20 34.25C24.0743 34.0968 28.0145 32.7531 31.3335 30.3849C34.6525 28.0167 37.2048 24.7279 38.675 20.925C38.7743 20.6504 38.7743 20.3496 38.675 20.075ZM20 31.75C13.375 31.75 6.37499 26.8375 3.83749 20.5C6.37499 14.1625 13.375 9.25 20 9.25C26.625 9.25 33.625 14.1625 36.1625 20.5C33.625 26.8375 26.625 31.75 20 31.75Z" fill="#EDECE6"/>
<path d="M20 13C18.5166 13 17.0666 13.4399 15.8332 14.264C14.5999 15.0881 13.6386 16.2594 13.0709 17.6299C12.5032 19.0003 12.3547 20.5083 12.6441 21.9632C12.9335 23.418 13.6478 24.7544 14.6967 25.8033C15.7456 26.8522 17.082 27.5665 18.5368 27.8559C19.9917 28.1453 21.4997 27.9968 22.8701 27.4291C24.2406 26.8614 25.4119 25.9001 26.236 24.6668C27.0601 23.4334 27.5 21.9834 27.5 20.5C27.5 18.5109 26.7098 16.6032 25.3033 15.1967C23.8968 13.7902 21.9891 13 20 13ZM20 25.5C19.0111 25.5 18.0444 25.2068 17.2222 24.6573C16.3999 24.1079 15.759 23.327 15.3806 22.4134C15.0022 21.4998 14.9032 20.4945 15.0961 19.5245C15.289 18.5546 15.7652 17.6637 16.4645 16.9645C17.1637 16.2652 18.0546 15.789 19.0246 15.5961C19.9945 15.4031 20.9998 15.5022 21.9134 15.8806C22.8271 16.259 23.6079 16.8999 24.1574 17.7221C24.7068 18.5444 25 19.5111 25 20.5C25 21.8261 24.4732 23.0979 23.5355 24.0355C22.5979 24.9732 21.3261 25.5 20 25.5Z" fill="#EDECE6"/>
</g>
<defs>
<clipPath id="clip0_12_40">
<rect width="40" height="40" fill="white" transform="translate(0 0.5)"/>
</clipPath>
</defs>
</svg>
