<svg width="32" height="32" viewBox="0 0 32 32" fill="none" xmlns="http://www.w3.org/2000/svg">
<g clip-path="url(#clip0_2_62)">
<path d="M26 12H20V6C19.9991 5.20462 19.6828 4.44206 19.1204 3.87964C18.5579 3.31722 17.7954 3.00087 17 3H14.8672C14.3863 3.00193 13.922 3.17628 13.5587 3.4914C13.1954 3.80651 12.9571 4.24148 12.8872 4.7173L12.0419 10.6338L8.4648 16H2V30H23C24.8559 29.9979 26.6352 29.2598 27.9475 27.9475C29.2598 26.6352 29.9979 24.8559 30 23V16C29.9988 14.9395 29.577 13.9228 28.8271 13.1729C28.0772 12.423 27.0605 12.0012 26 12ZM8 28H4V18H8V28ZM28 23C27.9985 24.3256 27.4712 25.5965 26.5339 26.5339C25.5965 27.4712 24.3256 27.9985 23 28H10V17.3027L13.9578 11.3662L14.8672 5H17C17.2652 5.00021 17.5194 5.10564 17.7069 5.29313C17.8944 5.48062 17.9998 5.73485 18 6V14H26C26.5302 14.0007 27.0386 14.2116 27.4135 14.5865C27.7884 14.9614 27.9993 15.4698 28 16V23Z" fill="#EDECE6"/>
</g>
<defs>
<clipPath id="clip0_2_62">
<rect width="32" height="32" fill="white"/>
</clipPath>
</defs>
</svg>
