<svg width="32" height="32" viewBox="0 0 32 32" fill="none" xmlns="http://www.w3.org/2000/svg">
<g clip-path="url(#clip0_2_59)">
<path d="M30 16V9C29.9979 7.14412 29.2598 5.36484 27.9475 4.05253C26.6352 2.74023 24.8559 2.00206 23 2H2V16H8.4648L12.0422 21.3662L12.8875 27.2827C12.9574 27.7585 13.1956 28.1934 13.5589 28.5085C13.9221 28.8236 14.3863 28.998 14.8672 29H17C17.7954 28.9991 18.5579 28.6828 19.1204 28.1204C19.6828 27.5579 19.9991 26.7954 20 26V20H26C27.0605 19.9988 28.0772 19.577 28.8271 18.8271C29.577 18.0772 29.9988 17.0605 30 16ZM8 14H4V4H8V14ZM28 16C27.9993 16.5302 27.7884 17.0386 27.4135 17.4135C27.0386 17.7884 26.5302 17.9993 26 18H18V26C17.9998 26.2652 17.8944 26.5194 17.7069 26.7069C17.5194 26.8944 17.2652 26.9998 17 27H14.8672L13.9578 20.6338L10 14.6973V4H23C24.3256 4.00151 25.5965 4.52878 26.5339 5.46613C27.4712 6.40349 27.9985 7.67438 28 9V16Z" fill="#EDECE6"/>
</g>
<defs>
<clipPath id="clip0_2_59">
<rect width="32" height="32" fill="white"/>
</clipPath>
</defs>
</svg>
