<svg width="32" height="32" viewBox="0 0 32 32" fill="none" xmlns="http://www.w3.org/2000/svg">
<g clip-path="url(#clip0_117_44)">
<path d="M7 16H2V30H7V16Z" fill="#EDECE6"/>
<path d="M23 30H9V15.1973L12.0422 10.6338L12.8875 4.7173C12.9574 4.24153 13.1956 3.8066 13.5589 3.49149C13.9221 3.17639 14.3863 3.002 14.8672 3H15C15.7954 3.00087 16.5579 3.31722 17.1204 3.87964C17.6828 4.44206 17.9991 5.20462 18 6V12H26C27.0605 12.0012 28.0772 12.423 28.8271 13.1729C29.577 13.9228 29.9988 14.9395 30 16V23C29.9979 24.8559 29.2598 26.6352 27.9475 27.9475C26.6352 29.2598 24.8559 29.9979 23 30Z" fill="#EDECE6"/>
</g>
<defs>
<clipPath id="clip0_117_44">
<rect width="32" height="32" fill="white"/>
</clipPath>
</defs>
</svg>
